<?xml version="1.0" encoding="UTF-8"?>
<svg xmlns="http://www.w3.org/2000/svg" xmlns:xlink="http://www.w3.org/1999/xlink" width="128px" height="128px" viewBox="0 0 128 128" version="1.1">
<g id="surface1">
<path style=" stroke:none;fill-rule:nonzero;fill:rgb(0%,0%,0%);fill-opacity:1;" d="M 52 8 C 45.371094 8 40 13.371094 40 20 L 40 24 L 12 24 C 5.371094 24 0 29.371094 0 36 L 0 100 C 0 106.628906 5.371094 112 12 112 L 116 112 C 122.628906 112 128 106.628906 128 100 L 128 36 C 128 29.371094 122.628906 24 116 24 L 88 24 L 88 20 C 88 13.371094 82.628906 8 76 8 Z M 52 16 L 76 16 C 78.210938 16 80 17.789062 80 20 L 80 24 L 48 24 L 48 20 C 48 17.789062 49.789062 16 52 16 M 67.089844 71.3125 L 120 57.207031 L 120 100 C 120 102.210938 118.210938 104 116 104 L 12 104 C 9.789062 104 8 102.210938 8 100 L 8 57.199219 L 60.910156 71.3125 C 62.933594 71.851562 65.066406 71.851562 67.089844 71.3125 M 12 32 L 116 32 C 118.210938 32 120 33.789062 120 36 L 120 48.929688 L 65.03125 63.585938 C 64.355469 63.765625 63.644531 63.765625 62.96875 63.585938 L 8 48.929688 L 8 36 C 8 33.789062 9.789062 32 12 32 "/>
</g>
</svg>
